<svg xmlns="http://www.w3.org/2000/svg" viewBox="0 0 662.5 108.0"><g transform="translate(14,14)"><path d="M14 22h30a7 7 0 0 1 7 7v14a7 7 0 0 1-7 7H28l-7 6v-6a7 7 0 0 1-7-7V22Z" fill="#141a2e"/><path d="M36 31h30v14a7 7 0 0 1-7 7v6l-7-6H43a7 7 0 0 1-7-7V31Z" fill="#2563eb"/><path d="M36 31h8v12a7 7 0 0 1-7 7h-1V31Z" fill="#1e3a8a" opacity=".55"/><g fill="#141a2e" transform="translate(120,9.918507890961262) scale(0.06599713055954089) translate(0,697.00) scale(1,-1)"><path transform="translate(-5.00,0)" d="M5.00018310546875 0 290.19989013671875 697H396.1993408203125L680.5990600585938 0H524.5999755859375L343.79962158203125 484.601318359375L161.19927978515625 0ZM200.99945068359375 127.2005615234375 245.59918212890625 254.99981689453125H440.800048828125L487.3997802734375 127.2005615234375Z"/><path transform="translate(651.00,0)" d="M268.60003662109375 -214.5999755859375Q157.0001220703125 -214.5999755859375 93.00015258789062 -175.19998168945312Q29.00018310546875 -135.79998779296875 29.00018310546875 -67.5999755859375Q29.00018310546875 -61 29.900177001953125 -52.600006103515625Q30.8001708984375 -44.20001220703125 32.8001708984375 -35.60003662109375L176.599853515625 49.4000244140625L207.99981689453125 10.2003173828125L147.59967041015625 -63.9998779296875Q146.59967041015625 -66.39990234375 146.59967041015625 -68.19992065429688Q146.59967041015625 -69.99993896484375 146.59967041015625 -72.199951171875Q146.59967041015625 -95.40020751953125 179.39981079101562 -108.90029907226562Q212.199951171875 -122.400390625 268.60003662109375 -122.400390625Q314.8001708984375 -122.400390625 338.0003662109375 -110.90032958984375Q361.2005615234375 -99.4002685546875 361.2005615234375 -79.60003662109375Q361.2005615234375 -69.19989013671875 355.30047607421875 -62.699798583984375Q349.400390625 -56.19970703125 335.10028076171875 -51.59967041015625Q320.8001708984375 -46.9996337890625 296.60009765625 -43.199615478515625Q272.4000244140625 -39.39959716796875 236.4000244140625 -35.1995849609375Q190.60003662109375 -29.799560546875 146.10006713867188 -16.399566650390625Q101.60009765625 -2.99957275390625 72.10012817382812 24.000396728515625Q42.60015869140625 51.0003662109375 42.60015869140625 96.00030517578125Q42.60015869140625 136.6002197265625 70.30010986328125 170.400146484375Q98.00006103515625 204.2000732421875 143.5999755859375 225.60003662109375L204.79986572265625 173.00030517578125Q181.19970703125 169.80023193359375 167.59970092773438 156.90017700195312Q153.99969482421875 144.0001220703125 153.99969482421875 126.60003662109375Q153.99969482421875 111.5999755859375 166.69970703125 102.7999267578125Q179.39971923828125 93.9998779296875 202.89974975585938 89.49984741210938Q226.3997802734375 84.99981689453125 258.39984130859375 80.7998046875Q311.19976806640625 74.59979248046875 355.1997375488281 66.59979248046875Q399.19970703125 58.59979248046875 431.2997131347656 44.09979248046875Q463.39971923828125 29.59979248046875 480.5997314453125 4.2998046875Q497.79974365234375 -21.00018310546875 497.79974365234375 -61.60015869140625Q497.79974365234375 -136.00006103515625 438.59979248046875 -175.30001831054688Q379.39984130859375 -214.5999755859375 268.60003662109375 -214.5999755859375ZM259 132.40032958984375Q195.60009765625 132.40032958984375 148.00015258789062 156.40029907226562Q100.40020751953125 180.4002685546875 73.90023803710938 221.80023193359375Q47.4002685546875 263.2001953125 47.4002685546875 316.400146484375Q47.4002685546875 373.2000732421875 75.70022583007812 415.10003662109375Q104.00018310546875 457 151.5001220703125 480.1999816894531Q199.00006103515625 503.39996337890625 254.4000244140625 503.39996337890625Q309.5999755859375 503.39996337890625 356.9999084472656 480.1999816894531Q404.39984130859375 457 433.59979248046875 413.800048828125Q462.79974365234375 370.60009765625 462.79974365234375 311.8001708984375Q462.79974365234375 257.6002197265625 437.19976806640625 217.20025634765625Q411.59979248046875 176.80029296875 365.599853515625 154.60031127929688Q319.59991455078125 132.40032958984375 259 132.40032958984375ZM256.20001220703125 240.5997314453125Q292.6002197265625 240.5997314453125 309.3003845214844 263.099853515625Q326.00054931640625 285.5999755859375 326.00054931640625 316.8001708984375Q326.00054931640625 349.400390625 307.400390625 369.60052490234375Q288.80023193359375 389.8006591796875 256.20001220703125 389.8006591796875Q222.59979248046875 389.8006591796875 203.79962158203125 369.5005187988281Q184.99945068359375 349.20037841796875 184.99945068359375 317.00018310546875Q184.99945068359375 285.5999755859375 201.9996337890625 263.099853515625Q218.99981689453125 240.5997314453125 256.20001220703125 240.5997314453125ZM429.19976806640625 385.000244140625 329.80035400390625 448.39990234375 447.400146484375 541.5997924804688 517.5997314453125 456.60028076171875Z"/><path transform="translate(1146.00,0)" d="M281.5999755859375 -10.39996337890625Q215.60009765625 -10.39996337890625 168.50015258789062 10.70001220703125Q121.40020751953125 31.79998779296875 91.70022583007812 67.99996948242188Q62.000244140625 104.199951171875 48.30023193359375 149.699951171875Q34.6002197265625 195.199951171875 34.6002197265625 243.79998779296875Q34.6002197265625 290.800048828125 48.200225830078125 336.9000549316406Q61.80023193359375 383.00006103515625 90.1002197265625 420.60003662109375Q118.40020751953125 458.20001220703125 164.00015258789062 480.79998779296875Q209.60009765625 503.39996337890625 273.5999755859375 503.39996337890625Q331.39996337890625 503.39996337890625 374.8999328613281 483.89996337890625Q418.39990234375 464.39996337890625 447.29986572265625 429.5999755859375Q476.1998291015625 394.79998779296875 490.7998046875 348.00006103515625Q505.3997802734375 301.20013427734375 505.3997802734375 246.60028076171875Q505.3997802734375 237.80035400390625 504.8997802734375 226.10031127929688Q504.3997802734375 214.4002685546875 502.3997802734375 199.40032958984375H172.19940185546875Q177.599365234375 152.99993896484375 210.59945678710938 130.59967041015625Q243.59954833984375 108.19940185546875 289.79986572265625 108.19940185546875Q327.199951171875 108.19940185546875 363.9998779296875 120.99942016601562Q400.7998046875 133.7994384765625 428.7998046875 157.59954833984375L491.79974365234375 62.40020751953125Q455.19989013671875 35.8001708984375 423.59991455078125 19.70013427734375Q391.99993896484375 3.60009765625 358.49993896484375 -3.399932861328125Q324.99993896484375 -10.39996337890625 281.5999755859375 -10.39996337890625ZM370.2005615234375 267.99993896484375Q372.2005615234375 275.99993896484375 373.50054931640625 283.99993896484375Q374.800537109375 291.99993896484375 374.800537109375 299.199951171875Q374.800537109375 319.20001220703125 367.5005187988281 335.6001281738281Q360.20050048828125 352.000244140625 346.90045166015625 363.9003601074219Q333.60040283203125 375.80047607421875 315.7002868652344 382.50054931640625Q297.8001708984375 389.20062255859375 276.39996337890625 389.20062255859375Q241.39984130859375 389.20062255859375 218.79971313476562 375.60052490234375Q196.1995849609375 362.00042724609375 184.79949951171875 341.80023193359375Q173.3994140625 321.60003662109375 170.3994140625 300.79974365234375H415.80029296875Z"/><path transform="translate(1658.00,0)" d="M57.6002197265625 0V493H195.3994140625V379.20013427734375L175.3994140625 377.800048828125Q187.7994384765625 425.39990234375 213.3994140625 452.69989013671875Q238.9993896484375 479.9998779296875 271.7994079589844 491.6999206542969Q304.59942626953125 503.39996337890625 337.59954833984375 503.39996337890625Q422.5994873046875 503.39996337890625 470.199462890625 455.89996337890625Q517.7994384765625 408.39996337890625 517.7994384765625 324.99981689453125V0H380.000244140625V274.0001220703125Q380.000244140625 331.400390625 359.70013427734375 357.7005310058594Q339.4000244140625 384.00067138671875 295.39984130859375 384.00067138671875Q261.5997314453125 384.00067138671875 239.4996337890625 368.20062255859375Q217.3995361328125 352.40057373046875 206.39947509765625 319.1004638671875Q195.3994140625 285.80035400390625 195.3994140625 233.2001953125V0Z"/><path transform="translate(2198.00,0)" d="M252.79974365234375 -10.39996337890625Q212.1998291015625 -10.39996337890625 176.09994506835938 5.100006103515625Q140.00006103515625 20.5999755859375 118.00015258789062 55.799896240234375Q96.000244140625 90.99981689453125 96.000244140625 150.79962158203125V601.8003540039062L234.7994384765625 676.199951171875V189.599365234375Q234.7994384765625 146.19940185546875 246.199462890625 124.09939575195312Q257.5994873046875 101.9993896484375 290.79949951171875 101.9993896484375Q300.79949951171875 101.9993896484375 313.19952392578125 104.09939575195312Q325.59954833984375 106.19940185546875 339.99957275390625 110.19940185546875V5Q318.599609375 -2.79998779296875 297.0996398925781 -6.5999755859375Q275.59967041015625 -10.39996337890625 252.79974365234375 -10.39996337890625ZM10 386.20062255859375V493H339.99957275390625V386.20062255859375Z"/><path transform="translate(2542.00,0)" d="M56.6002197265625 0V493H194.19940185546875V0ZM54.20013427734375 565.2002563476562V697.0H197.39947509765625V565.2002563476562Z"/><path transform="translate(2764.00,0)" d="M278.5999755859375 -10.39996337890625Q217.2000732421875 -10.39996337890625 171.5001220703125 11.20001220703125Q125.8001708984375 32.79998779296875 95.2001953125 69.49996948242188Q64.6002197265625 106.199951171875 49.6002197265625 152.199951171875Q34.6002197265625 198.199951171875 34.6002197265625 247Q34.6002197265625 295.60003662109375 49.6002197265625 341.60003662109375Q64.6002197265625 387.60003662109375 95.2001953125 423.9000244140625Q125.8001708984375 460.20001220703125 171.5001220703125 481.79998779296875Q217.2000732421875 503.39996337890625 278.5999755859375 503.39996337890625Q354.9998779296875 503.39996337890625 411.0998229980469 467.0Q467.19976806640625 430.60003662109375 494.5997314453125 355.80010986328125L374.8004150390625 308.400390625Q364.0003662109375 341.60052490234375 341.4002380371094 362.80059814453125Q318.80010986328125 384.00067138671875 278.5999755859375 384.00067138671875Q240.7998046875 384.00067138671875 217.19967651367188 364.0005798339844Q193.59954833984375 344.00048828125 182.89947509765625 312.600341796875Q172.19940185546875 281.2001953125 172.19940185546875 247Q172.19940185546875 212.7998046875 182.89947509765625 180.899658203125Q193.59954833984375 148.99951171875 217.19967651367188 129.09942626953125Q240.7998046875 109.1993408203125 278.5999755859375 109.1993408203125Q318.80010986328125 109.1993408203125 341.4002380371094 130.29940795898438Q364.0003662109375 151.39947509765625 374.8004150390625 184.79962158203125L494.5997314453125 137.39990234375Q467.19976806640625 62.5999755859375 411.0998229980469 26.100006103515625Q354.9998779296875 -10.39996337890625 278.5999755859375 -10.39996337890625Z"/><path transform="translate(3488.00,0)" d="M63.000244140625 0V697H272.19903564453125L443.999755859375 205.99908447265625H418.39990234375L590.2006225585938 697H799.1994018554688V0H656.000244140625V529.4010009765625L669.400146484375 526.801025390625L500.59942626953125 62.199951171875H361.80023193359375L192.79949951171875 526.801025390625L206.19940185546875 529.4010009765625V0Z"/><path transform="translate(4320.00,0)" d="M281.5999755859375 -10.39996337890625Q215.60009765625 -10.39996337890625 168.50015258789062 10.70001220703125Q121.40020751953125 31.79998779296875 91.70022583007812 67.99996948242188Q62.000244140625 104.199951171875 48.30023193359375 149.699951171875Q34.6002197265625 195.199951171875 34.6002197265625 243.79998779296875Q34.6002197265625 290.800048828125 48.200225830078125 336.9000549316406Q61.80023193359375 383.00006103515625 90.1002197265625 420.60003662109375Q118.40020751953125 458.20001220703125 164.00015258789062 480.79998779296875Q209.60009765625 503.39996337890625 273.5999755859375 503.39996337890625Q331.39996337890625 503.39996337890625 374.8999328613281 483.89996337890625Q418.39990234375 464.39996337890625 447.29986572265625 429.5999755859375Q476.1998291015625 394.79998779296875 490.7998046875 348.00006103515625Q505.3997802734375 301.20013427734375 505.3997802734375 246.60028076171875Q505.3997802734375 237.80035400390625 504.8997802734375 226.10031127929688Q504.3997802734375 214.4002685546875 502.3997802734375 199.40032958984375H172.19940185546875Q177.599365234375 152.99993896484375 210.59945678710938 130.59967041015625Q243.59954833984375 108.19940185546875 289.79986572265625 108.19940185546875Q327.199951171875 108.19940185546875 363.9998779296875 120.99942016601562Q400.7998046875 133.7994384765625 428.7998046875 157.59954833984375L491.79974365234375 62.40020751953125Q455.19989013671875 35.8001708984375 423.59991455078125 19.70013427734375Q391.99993896484375 3.60009765625 358.49993896484375 -3.399932861328125Q324.99993896484375 -10.39996337890625 281.5999755859375 -10.39996337890625ZM370.2005615234375 267.99993896484375Q372.2005615234375 275.99993896484375 373.50054931640625 283.99993896484375Q374.800537109375 291.99993896484375 374.800537109375 299.199951171875Q374.800537109375 319.20001220703125 367.5005187988281 335.6001281738281Q360.20050048828125 352.000244140625 346.90045166015625 363.9003601074219Q333.60040283203125 375.80047607421875 315.7002868652344 382.50054931640625Q297.8001708984375 389.20062255859375 276.39996337890625 389.20062255859375Q241.39984130859375 389.20062255859375 218.79971313476562 375.60052490234375Q196.1995849609375 362.00042724609375 184.79949951171875 341.80023193359375Q173.3994140625 321.60003662109375 170.3994140625 300.79974365234375H415.80029296875Z"/><path transform="translate(4832.00,0)" d="M231.00006103515625 -10.39996337890625Q174.60015869140625 -10.39996337890625 133.00018310546875 5.800018310546875Q91.40020751953125 22 63.300201416015625 45.4000244140625Q35.2001953125 68.800048828125 17.40020751953125 88.8001708984375L110.7996826171875 170.7996826171875Q128.19970703125 146.39947509765625 157.6998291015625 123.09945678710938Q187.199951171875 99.7994384765625 232.00006103515625 99.7994384765625Q265.4002685546875 99.7994384765625 283.8004150390625 112.99954223632812Q302.2005615234375 126.19964599609375 302.2005615234375 143.39990234375Q302.2005615234375 158.60009765625 290.00048828125 168.2001953125Q277.8004150390625 177.80029296875 257.80029296875 185.00033569335938Q237.8001708984375 192.20037841796875 212.800048828125 198.60040283203125Q184.800048828125 206.400390625 154.7000732421875 216.80038452148438Q124.60009765625 227.20037841796875 98.80014038085938 244.20034790039062Q73.00018310546875 261.2003173828125 57.000213623046875 287.60028076171875Q41.000244140625 314.000244140625 41.000244140625 353.8001708984375Q41.000244140625 421.2000732421875 93.3001708984375 462.3000183105469Q145.60009765625 503.39996337890625 231.39996337890625 503.39996337890625Q291.39990234375 503.39996337890625 340.29986572265625 480.2999572753906Q389.1998291015625 457.199951171875 417.59979248046875 413.39990234375L333.20025634765625 346.2003173828125Q314.80023193359375 372.40045166015625 286.7001647949219 386.7004699707031Q258.60009765625 401.00048828125 227.5999755859375 401.00048828125Q202.19976806640625 401.00048828125 185.79962158203125 391.400390625Q169.39947509765625 381.80029296875 169.39947509765625 366.60009765625Q169.39947509765625 355.99993896484375 176.99954223632812 348.599853515625Q184.599609375 341.19976806640625 202.89968872070312 334.9997253417969Q221.19976806640625 328.7996826171875 251.99981689453125 320.7996826171875Q281.39984130859375 313.7996826171875 313.39984130859375 303.7996826171875Q345.39984130859375 293.7996826171875 373.5998229980469 276.5997009277344Q401.7998046875 259.39971923828125 419.4997863769531 230.89974975585938Q437.19976806640625 202.3997802734375 437.19976806640625 158.7998046875Q437.19976806640625 108.79986572265625 411.3998107910156 70.59991455078125Q385.599853515625 32.39996337890625 339.1999206542969 11.0Q292.79998779296875 -10.39996337890625 231.00006103515625 -10.39996337890625Z"/><path transform="translate(5274.00,0)" d="M231.00006103515625 -10.39996337890625Q174.60015869140625 -10.39996337890625 133.00018310546875 5.800018310546875Q91.40020751953125 22 63.300201416015625 45.4000244140625Q35.2001953125 68.800048828125 17.40020751953125 88.8001708984375L110.7996826171875 170.7996826171875Q128.19970703125 146.39947509765625 157.6998291015625 123.09945678710938Q187.199951171875 99.7994384765625 232.00006103515625 99.7994384765625Q265.4002685546875 99.7994384765625 283.8004150390625 112.99954223632812Q302.2005615234375 126.19964599609375 302.2005615234375 143.39990234375Q302.2005615234375 158.60009765625 290.00048828125 168.2001953125Q277.8004150390625 177.80029296875 257.80029296875 185.00033569335938Q237.8001708984375 192.20037841796875 212.800048828125 198.60040283203125Q184.800048828125 206.400390625 154.7000732421875 216.80038452148438Q124.60009765625 227.20037841796875 98.80014038085938 244.20034790039062Q73.00018310546875 261.2003173828125 57.000213623046875 287.60028076171875Q41.000244140625 314.000244140625 41.000244140625 353.8001708984375Q41.000244140625 421.2000732421875 93.3001708984375 462.3000183105469Q145.60009765625 503.39996337890625 231.39996337890625 503.39996337890625Q291.39990234375 503.39996337890625 340.29986572265625 480.2999572753906Q389.1998291015625 457.199951171875 417.59979248046875 413.39990234375L333.20025634765625 346.2003173828125Q314.80023193359375 372.40045166015625 286.7001647949219 386.7004699707031Q258.60009765625 401.00048828125 227.5999755859375 401.00048828125Q202.19976806640625 401.00048828125 185.79962158203125 391.400390625Q169.39947509765625 381.80029296875 169.39947509765625 366.60009765625Q169.39947509765625 355.99993896484375 176.99954223632812 348.599853515625Q184.599609375 341.19976806640625 202.89968872070312 334.9997253417969Q221.19976806640625 328.7996826171875 251.99981689453125 320.7996826171875Q281.39984130859375 313.7996826171875 313.39984130859375 303.7996826171875Q345.39984130859375 293.7996826171875 373.5998229980469 276.5997009277344Q401.7998046875 259.39971923828125 419.4997863769531 230.89974975585938Q437.19976806640625 202.3997802734375 437.19976806640625 158.7998046875Q437.19976806640625 108.79986572265625 411.3998107910156 70.59991455078125Q385.599853515625 32.39996337890625 339.1999206542969 11.0Q292.79998779296875 -10.39996337890625 231.00006103515625 -10.39996337890625Z"/><path transform="translate(5716.00,0)" d="M370.400390625 0 359.6004638671875 66.20050048828125V312.199951171875Q359.6004638671875 351.6002197265625 333.3003845214844 369.8004150390625Q307.00030517578125 388.0006103515625 265 388.0006103515625Q225.79998779296875 388.0006103515625 183.60009765625 373.1005859375Q141.40020751953125 358.2005615234375 110.8001708984375 333.600341796875L47.40020751953125 428.7996826171875Q102.79998779296875 469.59979248046875 157.79995727539062 486.4998779296875Q212.7999267578125 503.39996337890625 276.59991455078125 503.39996337890625Q379.99981689453125 503.39996337890625 438.1997375488281 452.1999816894531Q496.399658203125 401 496.399658203125 312.199951171875V0ZM226.60009765625 -10.39996337890625Q173.00006103515625 -10.39996337890625 129.90008544921875 9.9000244140625Q86.80010986328125 30.20001220703125 61.900146484375 67.5999755859375Q37.00018310546875 104.99993896484375 37.00018310546875 154.19989013671875Q37.00018310546875 196.79986572265625 55.10015869140625 228.09982299804688Q73.20013427734375 259.3997802734375 103.2000732421875 276.19976806640625Q126.80010986328125 289.99981689453125 156.70016479492188 296.0998229980469Q186.6002197265625 302.1998291015625 220.4002685546875 302.1998291015625H370.8004150390625V200.60040283203125H240.400146484375Q226.4000244140625 200.60040283203125 213.99984741210938 198.20037841796875Q201.59967041015625 195.80035400390625 192.3995361328125 189.20025634765625Q184.199462890625 183.2001953125 179.49942016601562 174.20010375976562Q174.79937744140625 165.20001220703125 174.79937744140625 153.9998779296875Q174.79937744140625 129.399658203125 194.59951782226562 114.79953002929688Q214.399658203125 100.19940185546875 247.39990234375 100.19940185546875Q278.00006103515625 100.19940185546875 303.50018310546875 113.19949340820312Q329.00030517578125 126.1995849609375 344.3003845214844 148.89974975585938Q359.6004638671875 171.59991455078125 359.6004638671875 200.80010986328125L392.20050048828125 125.6007080078125Q375.8006591796875 74.20068359375 349.4006652832031 44.4005126953125Q323.00067138671875 14.600341796875 291.300537109375 2.100189208984375Q259.60040283203125 -10.39996337890625 226.60009765625 -10.39996337890625Z"/><path transform="translate(6234.00,0)" d="M268.60003662109375 -214.5999755859375Q157.0001220703125 -214.5999755859375 93.00015258789062 -175.19998168945312Q29.00018310546875 -135.79998779296875 29.00018310546875 -67.5999755859375Q29.00018310546875 -61 29.900177001953125 -52.600006103515625Q30.8001708984375 -44.20001220703125 32.8001708984375 -35.60003662109375L176.599853515625 49.4000244140625L207.99981689453125 10.2003173828125L147.59967041015625 -63.9998779296875Q146.59967041015625 -66.39990234375 146.59967041015625 -68.19992065429688Q146.59967041015625 -69.99993896484375 146.59967041015625 -72.199951171875Q146.59967041015625 -95.40020751953125 179.39981079101562 -108.90029907226562Q212.199951171875 -122.400390625 268.60003662109375 -122.400390625Q314.8001708984375 -122.400390625 338.0003662109375 -110.90032958984375Q361.2005615234375 -99.4002685546875 361.2005615234375 -79.60003662109375Q361.2005615234375 -69.19989013671875 355.30047607421875 -62.699798583984375Q349.400390625 -56.19970703125 335.10028076171875 -51.59967041015625Q320.8001708984375 -46.9996337890625 296.60009765625 -43.199615478515625Q272.4000244140625 -39.39959716796875 236.4000244140625 -35.1995849609375Q190.60003662109375 -29.799560546875 146.10006713867188 -16.399566650390625Q101.60009765625 -2.99957275390625 72.10012817382812 24.000396728515625Q42.60015869140625 51.0003662109375 42.60015869140625 96.00030517578125Q42.60015869140625 136.6002197265625 70.30010986328125 170.400146484375Q98.00006103515625 204.2000732421875 143.5999755859375 225.60003662109375L204.79986572265625 173.00030517578125Q181.19970703125 169.80023193359375 167.59970092773438 156.90017700195312Q153.99969482421875 144.0001220703125 153.99969482421875 126.60003662109375Q153.99969482421875 111.5999755859375 166.69970703125 102.7999267578125Q179.39971923828125 93.9998779296875 202.89974975585938 89.49984741210938Q226.3997802734375 84.99981689453125 258.39984130859375 80.7998046875Q311.19976806640625 74.59979248046875 355.1997375488281 66.59979248046875Q399.19970703125 58.59979248046875 431.2997131347656 44.09979248046875Q463.39971923828125 29.59979248046875 480.5997314453125 4.2998046875Q497.79974365234375 -21.00018310546875 497.79974365234375 -61.60015869140625Q497.79974365234375 -136.00006103515625 438.59979248046875 -175.30001831054688Q379.39984130859375 -214.5999755859375 268.60003662109375 -214.5999755859375ZM259 132.40032958984375Q195.60009765625 132.40032958984375 148.00015258789062 156.40029907226562Q100.40020751953125 180.4002685546875 73.90023803710938 221.80023193359375Q47.4002685546875 263.2001953125 47.4002685546875 316.400146484375Q47.4002685546875 373.2000732421875 75.70022583007812 415.10003662109375Q104.00018310546875 457 151.5001220703125 480.1999816894531Q199.00006103515625 503.39996337890625 254.4000244140625 503.39996337890625Q309.5999755859375 503.39996337890625 356.9999084472656 480.1999816894531Q404.39984130859375 457 433.59979248046875 413.800048828125Q462.79974365234375 370.60009765625 462.79974365234375 311.8001708984375Q462.79974365234375 257.6002197265625 437.19976806640625 217.20025634765625Q411.59979248046875 176.80029296875 365.599853515625 154.60031127929688Q319.59991455078125 132.40032958984375 259 132.40032958984375ZM256.20001220703125 240.5997314453125Q292.6002197265625 240.5997314453125 309.3003845214844 263.099853515625Q326.00054931640625 285.5999755859375 326.00054931640625 316.8001708984375Q326.00054931640625 349.400390625 307.400390625 369.60052490234375Q288.80023193359375 389.8006591796875 256.20001220703125 389.8006591796875Q222.59979248046875 389.8006591796875 203.79962158203125 369.5005187988281Q184.99945068359375 349.20037841796875 184.99945068359375 317.00018310546875Q184.99945068359375 285.5999755859375 201.9996337890625 263.099853515625Q218.99981689453125 240.5997314453125 256.20001220703125 240.5997314453125ZM429.19976806640625 385.000244140625 329.80035400390625 448.39990234375 447.400146484375 541.5997924804688 517.5997314453125 456.60028076171875Z"/><path transform="translate(6729.00,0)" d="M56.6002197265625 0V493H194.19940185546875V0ZM54.20013427734375 565.2002563476562V697.0H197.39947509765625V565.2002563476562Z"/><path transform="translate(6951.00,0)" d="M57.6002197265625 0V493H195.3994140625V379.20013427734375L175.3994140625 377.800048828125Q187.7994384765625 425.39990234375 213.3994140625 452.69989013671875Q238.9993896484375 479.9998779296875 271.7994079589844 491.6999206542969Q304.59942626953125 503.39996337890625 337.59954833984375 503.39996337890625Q422.5994873046875 503.39996337890625 470.199462890625 455.89996337890625Q517.7994384765625 408.39996337890625 517.7994384765625 324.99981689453125V0H380.000244140625V274.0001220703125Q380.000244140625 331.400390625 359.70013427734375 357.7005310058594Q339.4000244140625 384.00067138671875 295.39984130859375 384.00067138671875Q261.5997314453125 384.00067138671875 239.4996337890625 368.20062255859375Q217.3995361328125 352.40057373046875 206.39947509765625 319.1004638671875Q195.3994140625 285.80035400390625 195.3994140625 233.2001953125V0Z"/><path transform="translate(7491.00,0)" d="M268.60003662109375 -214.5999755859375Q157.0001220703125 -214.5999755859375 93.00015258789062 -175.19998168945312Q29.00018310546875 -135.79998779296875 29.00018310546875 -67.5999755859375Q29.00018310546875 -61 29.900177001953125 -52.600006103515625Q30.8001708984375 -44.20001220703125 32.8001708984375 -35.60003662109375L176.599853515625 49.4000244140625L207.99981689453125 10.2003173828125L147.59967041015625 -63.9998779296875Q146.59967041015625 -66.39990234375 146.59967041015625 -68.19992065429688Q146.59967041015625 -69.99993896484375 146.59967041015625 -72.199951171875Q146.59967041015625 -95.40020751953125 179.39981079101562 -108.90029907226562Q212.199951171875 -122.400390625 268.60003662109375 -122.400390625Q314.8001708984375 -122.400390625 338.0003662109375 -110.90032958984375Q361.2005615234375 -99.4002685546875 361.2005615234375 -79.60003662109375Q361.2005615234375 -69.19989013671875 355.30047607421875 -62.699798583984375Q349.400390625 -56.19970703125 335.10028076171875 -51.59967041015625Q320.8001708984375 -46.9996337890625 296.60009765625 -43.199615478515625Q272.4000244140625 -39.39959716796875 236.4000244140625 -35.1995849609375Q190.60003662109375 -29.799560546875 146.10006713867188 -16.399566650390625Q101.60009765625 -2.99957275390625 72.10012817382812 24.000396728515625Q42.60015869140625 51.0003662109375 42.60015869140625 96.00030517578125Q42.60015869140625 136.6002197265625 70.30010986328125 170.400146484375Q98.00006103515625 204.2000732421875 143.5999755859375 225.60003662109375L204.79986572265625 173.00030517578125Q181.19970703125 169.80023193359375 167.59970092773438 156.90017700195312Q153.99969482421875 144.0001220703125 153.99969482421875 126.60003662109375Q153.99969482421875 111.5999755859375 166.69970703125 102.7999267578125Q179.39971923828125 93.9998779296875 202.89974975585938 89.49984741210938Q226.3997802734375 84.99981689453125 258.39984130859375 80.7998046875Q311.19976806640625 74.59979248046875 355.1997375488281 66.59979248046875Q399.19970703125 58.59979248046875 431.2997131347656 44.09979248046875Q463.39971923828125 29.59979248046875 480.5997314453125 4.2998046875Q497.79974365234375 -21.00018310546875 497.79974365234375 -61.60015869140625Q497.79974365234375 -136.00006103515625 438.59979248046875 -175.30001831054688Q379.39984130859375 -214.5999755859375 268.60003662109375 -214.5999755859375ZM259 132.40032958984375Q195.60009765625 132.40032958984375 148.00015258789062 156.40029907226562Q100.40020751953125 180.4002685546875 73.90023803710938 221.80023193359375Q47.4002685546875 263.2001953125 47.4002685546875 316.400146484375Q47.4002685546875 373.2000732421875 75.70022583007812 415.10003662109375Q104.00018310546875 457 151.5001220703125 480.1999816894531Q199.00006103515625 503.39996337890625 254.4000244140625 503.39996337890625Q309.5999755859375 503.39996337890625 356.9999084472656 480.1999816894531Q404.39984130859375 457 433.59979248046875 413.800048828125Q462.79974365234375 370.60009765625 462.79974365234375 311.8001708984375Q462.79974365234375 257.6002197265625 437.19976806640625 217.20025634765625Q411.59979248046875 176.80029296875 365.599853515625 154.60031127929688Q319.59991455078125 132.40032958984375 259 132.40032958984375ZM256.20001220703125 240.5997314453125Q292.6002197265625 240.5997314453125 309.3003845214844 263.099853515625Q326.00054931640625 285.5999755859375 326.00054931640625 316.8001708984375Q326.00054931640625 349.400390625 307.400390625 369.60052490234375Q288.80023193359375 389.8006591796875 256.20001220703125 389.8006591796875Q222.59979248046875 389.8006591796875 203.79962158203125 369.5005187988281Q184.99945068359375 349.20037841796875 184.99945068359375 317.00018310546875Q184.99945068359375 285.5999755859375 201.9996337890625 263.099853515625Q218.99981689453125 240.5997314453125 256.20001220703125 240.5997314453125ZM429.19976806640625 385.000244140625 329.80035400390625 448.39990234375 447.400146484375 541.5997924804688 517.5997314453125 456.60028076171875Z"/></g></g></svg>